<svg xmlns="http://www.w3.org/2000/svg" width="168" height="33" viewBox="0 0 168 33" fill="none"><g clip-path="url(#clip0_2384_6674)"><path d="M39.8778 16.4806C39.8778 7.67979 46.8232 0 56.3918 0C65.9604 0 74.1786 8.9157 72.6747 18.7587H47.5177C48.0974 22.7723 51.685 25.8987 56.3544 25.8987C59.5573 25.8987 62.3341 24.2006 63.7232 21.6914H72.0964C70.0902 28.2141 63.9943 33 56.3918 33C46.8232 33 39.8778 25.3202 39.8778 16.4806ZM64.61 12.9694C63.6069 9.61185 60.3279 7.21892 56.3143 7.21892C52.3006 7.21892 49.0604 9.6506 47.9798 12.9694H64.6086H64.61Z" fill="#CCFF66"></path><path d="M75.118 0.618652H82.9503L97.7376 19.9655V0.618652H105.531V32.4215H97.8137L82.9115 12.921V32.4215H75.118V0.618652Z" fill="#CCFF66"></path><path d="M117.97 7.95124H107.822V0.580078H135.91V7.95124H125.724V32.4217H117.969V7.95124H117.97Z" fill="#CCFF66"></path><path d="M134.692 16.4806C134.692 7.67979 141.637 0 151.206 0C160.775 0 168.993 8.9157 167.489 18.7587H142.332C142.912 22.7723 146.499 25.8987 151.169 25.8987C154.372 25.8987 157.148 24.2006 158.537 21.6914H166.911C164.904 28.2141 158.809 33 151.206 33C141.637 33 134.692 25.3202 134.692 16.4806ZM159.424 12.9694C158.421 9.61185 155.142 7.21892 151.128 7.21892C147.115 7.21892 143.875 9.6506 142.794 12.9694H159.423H159.424Z" fill="#CCFF66"></path><path d="M31.9225 0.65625H22.5711L16.4711 19.6793L10.3019 0.65625H0V32.4217H1.0169L6.09589 13.2534L12.3467 32.4217H12.3841H20.6037L26.6996 13.2534L31.9335 32.4217H41.206L31.9225 0.65625Z" fill="#CCFF66"></path></g><defs><clipPath id="clip0_2384_6674"><rect width="167.676" height="33" fill="white"></rect></clipPath></defs></svg>